<svg version="1.0" xmlns="http://www.w3.org/2000/svg"
 width="512.000000pt" height="512.000000pt" viewBox="0 0 512.000000 512.000000" style="background: transparent" fill="#ffffff9c">
    <g transform="translate(0.000000,512.000000) scale(0.100000,-0.100000)">
        <path d="M1520 5113 c-565 -60 -1042 -474 -1180 -1022 -81 -327 -31 -710 130 -985 26 -45 37 -73 31 -80 -5 -6 -108 -90 -229 -186 -130 -103 -231 -191 -246 -215 -31 -46 -33 -85 -6 -143 15 -34 29 -47 65 -63 44 -20 62 -20 893 -16 830 3 849 4 944 25 256 58 475 176 658 356 423 414 537 1044 283 1561 -113 230 -240 380 -444 527 -254 182 -595 274 -899 241z m250 -615 c161 -39 289 -181 321 -353 20 -108 -9 -237 -71 -324 -17 -22 -30 -45 -30 -51 0 -6 13 -29 30 -51 120 -166 97 -414 -54 -565 -247 -246 -662 -129 -751 213 -20 76 -19 131 4 173 22 42 83 80 130 80 74 0 151 -77 151 -152 0 -52 31 -100 80 -125 55 -28 82 -29 136 -2 47 22 84 82 84 133 0 70 -79 146 -151 146 -76 1 -149 74 -149 150 0 76 73 149 149 150 75 0 151 78 151 154 0 46 -39 104 -85 126 -53 26 -81 25 -135 -2 -49 -26 -80 -74 -80 -126 0 -75 -77 -152 -151 -152 -47 0 -108 38 -130 80 -23 42 -24 97 -4 173 65 252 298 388 555 325z"/>
        <path d="M3325 3893 l-30 -4 3 -110 c3 -61 -1 -153 -8 -205 -11 -90 -50 -279 -66 -318 -6 -16 -4 -18 12 -11 104 44 174 55 269 44 301 -33 483 -365 349 -632 -44 -86 -68 -110 -237 -240 -180 -138 -228 -185 -263 -261 l-24 -51 233 -5 c197 -4 237 -8 264 -23 38 -20 73 -82 73 -127 0 -50 -35 -107 -80 -130 -37 -19 -58 -20 -371 -20 -366 0 -377 2 -422 64 -19 26 -22 44 -22 116 1 135 39 256 120 380 59 91 110 139 284 274 83 64 158 128 167 141 9 14 19 44 21 68 5 47 -19 93 -70 131 -39 29 -115 29 -154 0 -42 -31 -73 -83 -73 -121 0 -78 -73 -153 -147 -153 -49 1 -110 35 -130 75 l-19 36 -49 -68 c-67 -91 -222 -244 -323 -318 -115 -84 -249 -158 -374 -207 l-106 -41 25 -71 c129 -358 400 -648 743 -794 90 -38 275 -87 383 -101 50 -7 377 -11 885 -11 778 0 809 1 850 20 33 15 47 29 62 62 24 52 25 76 4 127 -13 34 -51 66 -257 222 -133 100 -243 183 -245 184 -1 1 15 33 37 70 115 196 181 440 181 663 -1 603 -413 1133 -1011 1302 -138 39 -361 59 -484 43z"/>
        <path d="M1725 2101 l-40 -6 33 -14 c20 -8 42 -30 57 -56 l25 -42 0 -541 0 -542 91 0 c74 0 98 -4 129 -21 44 -25 80 -83 80 -129 0 -46 -36 -104 -80 -129 -36 -20 -50 -21 -371 -21 -327 0 -335 1 -373 23 -70 40 -95 126 -57 197 31 59 80 80 189 80 l92 0 0 342 0 341 -22 -20 c-41 -37 -92 -63 -126 -63 -51 0 -109 35 -132 80 -25 49 -25 90 -1 138 23 44 322 343 366 366 28 14 -14 15 -512 16 l-542 0 -34 -57 c-253 -420 -261 -945 -21 -1347 23 -39 31 -62 25 -70 -5 -6 -108 -90 -229 -186 -130 -103 -231 -191 -246 -215 -31 -46 -33 -85 -6 -143 15 -34 29 -47 65 -63 44 -19 63 -20 897 -16 827 3 856 4 943 24 270 64 484 181 670 368 107 106 201 236 260 360 45 93 88 217 78 225 -5 4 -46 22 -93 40 -121 47 -183 80 -301 158 -308 206 -535 500 -648 837 l-30 90 -48 1 c-26 1 -66 -1 -88 -5z"/>
    </g>
</svg>
